<mxfile host="Electron" modified="2023-04-21T17:36:49.562Z" agent="Mozilla/5.0 (Windows NT 10.0; Win64; x64) AppleWebKit/537.36 (KHTML, like Gecko) draw.io/21.1.2 Chrome/106.0.5249.199 Electron/21.4.3 Safari/537.36" etag="s2dca_jr0t0fxhQwgmsn" version="21.1.2" type="device">
  <diagram id="C5RBs43oDa-KdzZeNtuy" name="Page-1">
    <mxGraphModel dx="1692" dy="1245" grid="1" gridSize="10" guides="1" tooltips="1" connect="1" arrows="1" fold="1" page="1" pageScale="1" pageWidth="827" pageHeight="1169" background="#FFFFFF" math="0" shadow="1">
      <root>
        <mxCell id="WIyWlLk6GJQsqaUBKTNV-0" />
        <mxCell id="WIyWlLk6GJQsqaUBKTNV-1" parent="WIyWlLk6GJQsqaUBKTNV-0" />
        <mxCell id="fTt4aev8CvQFNW-zbHjn-20" value="" style="edgeStyle=orthogonalEdgeStyle;rounded=1;orthogonalLoop=1;jettySize=auto;html=1;exitX=0.5;exitY=1;exitDx=0;exitDy=0;exitPerimeter=0;fontSize=16;fontStyle=1;labelBackgroundColor=none;strokeColor=#028090;fontColor=default;" parent="WIyWlLk6GJQsqaUBKTNV-1" source="fTt4aev8CvQFNW-zbHjn-91" target="fTt4aev8CvQFNW-zbHjn-19" edge="1">
          <mxGeometry relative="1" as="geometry">
            <mxPoint x="278" y="119" as="sourcePoint" />
          </mxGeometry>
        </mxCell>
        <mxCell id="fTt4aev8CvQFNW-zbHjn-7" value="Yes" style="edgeStyle=orthogonalEdgeStyle;rounded=1;orthogonalLoop=1;jettySize=auto;html=1;labelPosition=right;verticalLabelPosition=middle;align=left;verticalAlign=middle;fontSize=16;fontStyle=1;labelBackgroundColor=none;strokeColor=#028090;fontColor=default;" parent="WIyWlLk6GJQsqaUBKTNV-1" source="WIyWlLk6GJQsqaUBKTNV-6" target="fTt4aev8CvQFNW-zbHjn-6" edge="1">
          <mxGeometry x="-0.1429" relative="1" as="geometry">
            <mxPoint as="offset" />
          </mxGeometry>
        </mxCell>
        <mxCell id="fTt4aev8CvQFNW-zbHjn-52" value="No" style="edgeStyle=orthogonalEdgeStyle;rounded=1;orthogonalLoop=1;jettySize=auto;html=1;labelPosition=center;verticalLabelPosition=top;align=center;verticalAlign=bottom;fontSize=16;fontStyle=1;labelBackgroundColor=none;strokeColor=#028090;fontColor=default;" parent="WIyWlLk6GJQsqaUBKTNV-1" source="WIyWlLk6GJQsqaUBKTNV-6" target="fTt4aev8CvQFNW-zbHjn-51" edge="1">
          <mxGeometry x="-0.9643" relative="1" as="geometry">
            <mxPoint as="offset" />
          </mxGeometry>
        </mxCell>
        <mxCell id="WIyWlLk6GJQsqaUBKTNV-6" value="判断文件夹是否存在" style="rhombus;whiteSpace=wrap;html=1;shadow=0;fontFamily=Helvetica;fontSize=16;align=center;strokeWidth=1;spacing=6;spacingTop=-4;rounded=1;fontStyle=1;labelBackgroundColor=none;fillColor=#F45B69;strokeColor=#028090;fontColor=#E4FDE1;" parent="WIyWlLk6GJQsqaUBKTNV-1" vertex="1">
          <mxGeometry x="118" y="239" width="320" height="80" as="geometry" />
        </mxCell>
        <mxCell id="fTt4aev8CvQFNW-zbHjn-22" value="" style="edgeStyle=orthogonalEdgeStyle;rounded=1;orthogonalLoop=1;jettySize=auto;html=1;entryX=1;entryY=0.5;entryDx=0;entryDy=0;fontSize=16;fontStyle=1;labelBackgroundColor=none;strokeColor=#028090;fontColor=default;" parent="WIyWlLk6GJQsqaUBKTNV-1" source="WIyWlLk6GJQsqaUBKTNV-7" target="fTt4aev8CvQFNW-zbHjn-19" edge="1">
          <mxGeometry relative="1" as="geometry">
            <mxPoint x="914" y="159" as="targetPoint" />
          </mxGeometry>
        </mxCell>
        <mxCell id="WIyWlLk6GJQsqaUBKTNV-7" value="返回上一级或上上级目录" style="rounded=1;whiteSpace=wrap;html=1;fontSize=16;glass=0;strokeWidth=1;shadow=0;fontStyle=1;labelBackgroundColor=none;fillColor=#F45B69;strokeColor=#028090;fontColor=#E4FDE1;" parent="WIyWlLk6GJQsqaUBKTNV-1" vertex="1">
          <mxGeometry x="1639" y="159" width="240" height="40" as="geometry" />
        </mxCell>
        <mxCell id="fTt4aev8CvQFNW-zbHjn-11" value="" style="edgeStyle=orthogonalEdgeStyle;rounded=1;orthogonalLoop=1;jettySize=auto;html=1;fontSize=16;fontStyle=1;labelBackgroundColor=none;strokeColor=#028090;fontColor=default;exitX=0.5;exitY=1;exitDx=0;exitDy=0;" parent="WIyWlLk6GJQsqaUBKTNV-1" source="fTt4aev8CvQFNW-zbHjn-6" target="fTt4aev8CvQFNW-zbHjn-10" edge="1">
          <mxGeometry relative="1" as="geometry">
            <mxPoint x="278.0000000000002" y="449.9999999999998" as="sourcePoint" />
          </mxGeometry>
        </mxCell>
        <mxCell id="fTt4aev8CvQFNW-zbHjn-6" value="进入该文件夹目录，查找对应的文件&lt;br style=&quot;font-size: 16px;&quot;&gt;（以moduleA为名称的文件，默认扩展为.ts、.d.ts）" style="rounded=1;whiteSpace=wrap;html=1;fontSize=16;glass=0;strokeWidth=1;shadow=0;fontStyle=1;labelBackgroundColor=none;fillColor=#F45B69;strokeColor=#028090;fontColor=#E4FDE1;" parent="WIyWlLk6GJQsqaUBKTNV-1" vertex="1">
          <mxGeometry x="78" y="359" width="400" height="81" as="geometry" />
        </mxCell>
        <mxCell id="fTt4aev8CvQFNW-zbHjn-13" value="Yes" style="edgeStyle=orthogonalEdgeStyle;rounded=1;orthogonalLoop=1;jettySize=auto;html=1;labelPosition=right;verticalLabelPosition=middle;align=left;verticalAlign=middle;entryX=0.5;entryY=0;entryDx=0;entryDy=0;fontSize=16;fontStyle=1;labelBackgroundColor=none;strokeColor=#028090;fontColor=default;entryPerimeter=0;" parent="WIyWlLk6GJQsqaUBKTNV-1" source="fTt4aev8CvQFNW-zbHjn-10" target="fTt4aev8CvQFNW-zbHjn-92" edge="1">
          <mxGeometry x="-0.9682" relative="1" as="geometry">
            <mxPoint x="278" y="1239" as="targetPoint" />
            <mxPoint as="offset" />
          </mxGeometry>
        </mxCell>
        <mxCell id="fTt4aev8CvQFNW-zbHjn-15" value="No" style="edgeStyle=orthogonalEdgeStyle;rounded=1;orthogonalLoop=1;jettySize=auto;html=1;labelPosition=center;verticalLabelPosition=top;align=center;verticalAlign=bottom;fontSize=16;fontStyle=1;labelBackgroundColor=none;strokeColor=#028090;fontColor=default;" parent="WIyWlLk6GJQsqaUBKTNV-1" source="fTt4aev8CvQFNW-zbHjn-10" target="fTt4aev8CvQFNW-zbHjn-14" edge="1">
          <mxGeometry relative="1" as="geometry">
            <mxPoint as="offset" />
          </mxGeometry>
        </mxCell>
        <mxCell id="fTt4aev8CvQFNW-zbHjn-10" value="判断文件是否存在" style="rhombus;whiteSpace=wrap;html=1;shadow=0;fontFamily=Helvetica;fontSize=16;align=center;strokeWidth=1;spacing=6;spacingTop=-4;rounded=1;fontStyle=1;labelBackgroundColor=none;fillColor=#F45B69;strokeColor=#028090;fontColor=#E4FDE1;" parent="WIyWlLk6GJQsqaUBKTNV-1" vertex="1">
          <mxGeometry x="158" y="479" width="240" height="80" as="geometry" />
        </mxCell>
        <mxCell id="fTt4aev8CvQFNW-zbHjn-80" value="" style="edgeStyle=orthogonalEdgeStyle;rounded=1;orthogonalLoop=1;jettySize=auto;html=1;fontSize=16;fontStyle=1;exitX=1;exitY=0.5;exitDx=0;exitDy=0;entryX=0;entryY=0.5;entryDx=0;entryDy=0;labelBackgroundColor=none;strokeColor=#028090;fontColor=default;" parent="WIyWlLk6GJQsqaUBKTNV-1" source="fTt4aev8CvQFNW-zbHjn-14" target="fTt4aev8CvQFNW-zbHjn-16" edge="1">
          <mxGeometry relative="1" as="geometry">
            <mxPoint x="676" y="519.0000000000002" as="sourcePoint" />
          </mxGeometry>
        </mxCell>
        <mxCell id="fTt4aev8CvQFNW-zbHjn-14" value="查找对应的文件夹&lt;br style=&quot;font-size: 16px;&quot;&gt;（以moduleA为名称的文件夹）" style="rounded=1;whiteSpace=wrap;html=1;fontSize=16;glass=0;strokeWidth=1;shadow=0;fontStyle=1;labelBackgroundColor=none;fillColor=#F45B69;strokeColor=#028090;fontColor=#E4FDE1;" parent="WIyWlLk6GJQsqaUBKTNV-1" vertex="1">
          <mxGeometry x="438" y="479" width="240" height="80" as="geometry" />
        </mxCell>
        <mxCell id="fTt4aev8CvQFNW-zbHjn-57" style="edgeStyle=orthogonalEdgeStyle;rounded=1;orthogonalLoop=1;jettySize=auto;html=1;fontSize=16;fontStyle=1;labelBackgroundColor=none;strokeColor=#028090;fontColor=default;" parent="WIyWlLk6GJQsqaUBKTNV-1" source="fTt4aev8CvQFNW-zbHjn-16" edge="1">
          <mxGeometry relative="1" as="geometry">
            <mxPoint x="1759" y="520" as="targetPoint" />
          </mxGeometry>
        </mxCell>
        <mxCell id="fTt4aev8CvQFNW-zbHjn-58" value="&lt;font color=&quot;#000000&quot; style=&quot;font-size: 16px;&quot;&gt;No&lt;/font&gt;" style="edgeLabel;html=1;align=center;verticalAlign=bottom;resizable=0;points=[];labelPosition=center;verticalLabelPosition=top;rounded=1;fontSize=16;fontStyle=1;labelBackgroundColor=none;fontColor=#E4FDE1;" parent="fTt4aev8CvQFNW-zbHjn-57" vertex="1" connectable="0">
          <mxGeometry x="-0.7089" y="-2" relative="1" as="geometry">
            <mxPoint x="-90" y="-1" as="offset" />
          </mxGeometry>
        </mxCell>
        <mxCell id="fTt4aev8CvQFNW-zbHjn-82" value="Yes" style="edgeStyle=orthogonalEdgeStyle;rounded=1;orthogonalLoop=1;jettySize=auto;html=1;labelPosition=right;verticalLabelPosition=middle;align=left;verticalAlign=middle;fontSize=16;fontStyle=1;labelBackgroundColor=none;strokeColor=#028090;fontColor=default;" parent="WIyWlLk6GJQsqaUBKTNV-1" source="fTt4aev8CvQFNW-zbHjn-16" target="fTt4aev8CvQFNW-zbHjn-23" edge="1">
          <mxGeometry relative="1" as="geometry">
            <mxPoint as="offset" />
          </mxGeometry>
        </mxCell>
        <mxCell id="fTt4aev8CvQFNW-zbHjn-16" value="判断文件夹&lt;br style=&quot;font-size: 16px;&quot;&gt;是否存在" style="rhombus;whiteSpace=wrap;html=1;shadow=0;fontFamily=Helvetica;fontSize=16;align=center;strokeWidth=1;spacing=6;spacingTop=-4;rounded=1;fontStyle=1;labelBackgroundColor=none;fillColor=#F45B69;strokeColor=#028090;fontColor=#E4FDE1;" parent="WIyWlLk6GJQsqaUBKTNV-1" vertex="1">
          <mxGeometry x="719" y="479" width="240" height="80" as="geometry" />
        </mxCell>
        <mxCell id="fTt4aev8CvQFNW-zbHjn-21" value="" style="edgeStyle=orthogonalEdgeStyle;rounded=1;orthogonalLoop=1;jettySize=auto;html=1;fontSize=16;fontStyle=1;labelBackgroundColor=none;strokeColor=#028090;fontColor=default;" parent="WIyWlLk6GJQsqaUBKTNV-1" source="fTt4aev8CvQFNW-zbHjn-19" target="WIyWlLk6GJQsqaUBKTNV-6" edge="1">
          <mxGeometry relative="1" as="geometry" />
        </mxCell>
        <mxCell id="fTt4aev8CvQFNW-zbHjn-19" value="查找node-modules文件夹" style="rounded=1;whiteSpace=wrap;html=1;fontSize=16;glass=0;strokeWidth=1;shadow=0;fontStyle=1;labelBackgroundColor=none;fillColor=#F45B69;strokeColor=#028090;fontColor=#E4FDE1;" parent="WIyWlLk6GJQsqaUBKTNV-1" vertex="1">
          <mxGeometry x="158" y="159" width="240" height="40" as="geometry" />
        </mxCell>
        <mxCell id="fTt4aev8CvQFNW-zbHjn-26" value="" style="edgeStyle=orthogonalEdgeStyle;rounded=1;orthogonalLoop=1;jettySize=auto;html=1;labelPosition=right;verticalLabelPosition=middle;align=left;verticalAlign=middle;fontSize=16;fontStyle=1;labelBackgroundColor=none;strokeColor=#028090;fontColor=default;" parent="WIyWlLk6GJQsqaUBKTNV-1" source="fTt4aev8CvQFNW-zbHjn-23" target="fTt4aev8CvQFNW-zbHjn-25" edge="1">
          <mxGeometry relative="1" as="geometry" />
        </mxCell>
        <mxCell id="fTt4aev8CvQFNW-zbHjn-23" value="查找package.json文件" style="rounded=1;whiteSpace=wrap;html=1;fontSize=16;glass=0;strokeWidth=1;shadow=0;fontStyle=1;labelBackgroundColor=none;fillColor=#F45B69;strokeColor=#028090;fontColor=#E4FDE1;" parent="WIyWlLk6GJQsqaUBKTNV-1" vertex="1">
          <mxGeometry x="719" y="599" width="240" height="40" as="geometry" />
        </mxCell>
        <mxCell id="fTt4aev8CvQFNW-zbHjn-40" value="Yes" style="edgeStyle=orthogonalEdgeStyle;rounded=1;orthogonalLoop=1;jettySize=auto;html=1;labelPosition=right;verticalLabelPosition=middle;align=left;verticalAlign=middle;fontSize=16;fontStyle=1;labelBackgroundColor=none;strokeColor=#028090;fontColor=default;entryX=0.5;entryY=0;entryDx=0;entryDy=0;" parent="WIyWlLk6GJQsqaUBKTNV-1" source="fTt4aev8CvQFNW-zbHjn-25" target="4uB3L2ICESDj7g6x4wae-0" edge="1">
          <mxGeometry relative="1" as="geometry" />
        </mxCell>
        <mxCell id="fTt4aev8CvQFNW-zbHjn-25" value="判断是否存在&lt;br style=&quot;font-size: 16px;&quot;&gt;package.json文件" style="rhombus;whiteSpace=wrap;html=1;shadow=0;fontFamily=Helvetica;fontSize=16;align=center;strokeWidth=1;spacing=6;spacingTop=-4;rounded=1;fontStyle=1;labelBackgroundColor=none;fillColor=#F45B69;strokeColor=#028090;fontColor=#E4FDE1;" parent="WIyWlLk6GJQsqaUBKTNV-1" vertex="1">
          <mxGeometry x="679" y="679" width="320" height="80" as="geometry" />
        </mxCell>
        <mxCell id="fTt4aev8CvQFNW-zbHjn-78" value="Yes" style="edgeStyle=orthogonalEdgeStyle;rounded=1;orthogonalLoop=1;jettySize=auto;html=1;labelPosition=center;verticalLabelPosition=top;align=center;verticalAlign=bottom;fontSize=16;fontStyle=1;labelBackgroundColor=none;strokeColor=#028090;fontColor=default;" parent="WIyWlLk6GJQsqaUBKTNV-1" source="fTt4aev8CvQFNW-zbHjn-29" edge="1">
          <mxGeometry x="-0.8889" relative="1" as="geometry">
            <mxPoint x="278" y="1480" as="targetPoint" />
            <mxPoint as="offset" />
          </mxGeometry>
        </mxCell>
        <mxCell id="fl-ZTP4sPhZTgfokd5Q8-4" value="No" style="edgeStyle=orthogonalEdgeStyle;rounded=0;orthogonalLoop=1;jettySize=auto;html=1;labelBackgroundColor=none;strokeColor=#028090;fontColor=default;fontSize=16;labelPosition=right;verticalLabelPosition=middle;align=left;verticalAlign=middle;fontStyle=1" parent="WIyWlLk6GJQsqaUBKTNV-1" source="fTt4aev8CvQFNW-zbHjn-29" target="fl-ZTP4sPhZTgfokd5Q8-1" edge="1">
          <mxGeometry relative="1" as="geometry" />
        </mxCell>
        <mxCell id="fTt4aev8CvQFNW-zbHjn-29" value="判断文件是否存在" style="rhombus;whiteSpace=wrap;html=1;shadow=0;fontFamily=Helvetica;fontSize=16;align=center;strokeWidth=1;spacing=6;spacingTop=-4;rounded=1;fontStyle=1;labelBackgroundColor=none;fillColor=#F45B69;strokeColor=#028090;fontColor=#E4FDE1;" parent="WIyWlLk6GJQsqaUBKTNV-1" vertex="1">
          <mxGeometry x="719" y="1440" width="240" height="80" as="geometry" />
        </mxCell>
        <mxCell id="4uB3L2ICESDj7g6x4wae-22" value="" style="edgeStyle=orthogonalEdgeStyle;rounded=0;orthogonalLoop=1;jettySize=auto;html=1;fontSize=16;fontStyle=1;labelBackgroundColor=none;strokeColor=#028090;fontColor=default;" parent="WIyWlLk6GJQsqaUBKTNV-1" source="fTt4aev8CvQFNW-zbHjn-33" target="fTt4aev8CvQFNW-zbHjn-35" edge="1">
          <mxGeometry relative="1" as="geometry" />
        </mxCell>
        <mxCell id="fTt4aev8CvQFNW-zbHjn-33" value="查找package.json文件&lt;br style=&quot;font-size: 16px;&quot;&gt;中的types字段" style="rounded=1;whiteSpace=wrap;html=1;fontSize=16;glass=0;strokeWidth=1;shadow=0;fontStyle=1;labelBackgroundColor=none;fillColor=#F45B69;strokeColor=#028090;fontColor=#E4FDE1;" parent="WIyWlLk6GJQsqaUBKTNV-1" vertex="1">
          <mxGeometry x="719" y="1040" width="240" height="81" as="geometry" />
        </mxCell>
        <mxCell id="fTt4aev8CvQFNW-zbHjn-83" value="Yes" style="edgeStyle=orthogonalEdgeStyle;rounded=1;orthogonalLoop=1;jettySize=auto;html=1;labelPosition=right;verticalLabelPosition=middle;align=left;verticalAlign=middle;fontSize=16;fontStyle=1;labelBackgroundColor=none;strokeColor=#028090;fontColor=default;" parent="WIyWlLk6GJQsqaUBKTNV-1" source="fTt4aev8CvQFNW-zbHjn-35" target="fTt4aev8CvQFNW-zbHjn-61" edge="1">
          <mxGeometry relative="1" as="geometry" />
        </mxCell>
        <mxCell id="fTt4aev8CvQFNW-zbHjn-84" value="No" style="edgeStyle=orthogonalEdgeStyle;rounded=1;orthogonalLoop=1;jettySize=auto;html=1;labelPosition=center;verticalLabelPosition=top;align=center;verticalAlign=bottom;fontSize=16;fontStyle=1;labelBackgroundColor=none;strokeColor=#028090;fontColor=default;" parent="WIyWlLk6GJQsqaUBKTNV-1" source="fTt4aev8CvQFNW-zbHjn-35" target="fTt4aev8CvQFNW-zbHjn-64" edge="1">
          <mxGeometry relative="1" as="geometry" />
        </mxCell>
        <mxCell id="fTt4aev8CvQFNW-zbHjn-35" value="判断是否&lt;br style=&quot;font-size: 16px;&quot;&gt;存在types字段" style="rhombus;whiteSpace=wrap;html=1;shadow=0;fontFamily=Helvetica;fontSize=16;align=center;strokeWidth=1;spacing=6;spacingTop=-4;rounded=1;fontStyle=1;labelBackgroundColor=none;fillColor=#F45B69;strokeColor=#028090;fontColor=#E4FDE1;" parent="WIyWlLk6GJQsqaUBKTNV-1" vertex="1">
          <mxGeometry x="719" y="1160" width="240" height="80" as="geometry" />
        </mxCell>
        <mxCell id="fTt4aev8CvQFNW-zbHjn-54" value="Yes" style="edgeStyle=orthogonalEdgeStyle;rounded=1;orthogonalLoop=1;jettySize=auto;html=1;labelPosition=center;verticalLabelPosition=top;align=center;verticalAlign=bottom;fontSize=16;fontStyle=1;labelBackgroundColor=none;strokeColor=#028090;fontColor=default;" parent="WIyWlLk6GJQsqaUBKTNV-1" source="fTt4aev8CvQFNW-zbHjn-51" target="fTt4aev8CvQFNW-zbHjn-53" edge="1">
          <mxGeometry x="-0.5349" relative="1" as="geometry">
            <mxPoint as="offset" />
          </mxGeometry>
        </mxCell>
        <mxCell id="fTt4aev8CvQFNW-zbHjn-56" value="No" style="edgeStyle=orthogonalEdgeStyle;rounded=1;orthogonalLoop=1;jettySize=auto;html=1;labelPosition=right;verticalLabelPosition=middle;align=left;verticalAlign=middle;fontSize=16;fontStyle=1;labelBackgroundColor=none;strokeColor=#028090;fontColor=default;" parent="WIyWlLk6GJQsqaUBKTNV-1" source="fTt4aev8CvQFNW-zbHjn-51" target="WIyWlLk6GJQsqaUBKTNV-7" edge="1">
          <mxGeometry x="-0.5" relative="1" as="geometry">
            <mxPoint as="offset" />
          </mxGeometry>
        </mxCell>
        <mxCell id="fTt4aev8CvQFNW-zbHjn-51" value="判断是否是根目录" style="rhombus;whiteSpace=wrap;html=1;shadow=0;fontFamily=Helvetica;fontSize=16;align=center;strokeWidth=1;spacing=6;spacingTop=-4;rounded=1;fontStyle=1;labelBackgroundColor=none;fillColor=#F45B69;strokeColor=#028090;fontColor=#E4FDE1;" parent="WIyWlLk6GJQsqaUBKTNV-1" vertex="1">
          <mxGeometry x="1639" y="239" width="240" height="80" as="geometry" />
        </mxCell>
        <mxCell id="fTt4aev8CvQFNW-zbHjn-53" value="报错" style="rounded=1;whiteSpace=wrap;html=1;fontSize=16;glass=0;strokeWidth=1;shadow=0;fontStyle=1;labelBackgroundColor=none;fillColor=#F45B69;strokeColor=#028090;fontColor=#E4FDE1;" parent="WIyWlLk6GJQsqaUBKTNV-1" vertex="1">
          <mxGeometry x="1919" y="259" width="240" height="40" as="geometry" />
        </mxCell>
        <mxCell id="fTt4aev8CvQFNW-zbHjn-88" style="edgeStyle=orthogonalEdgeStyle;rounded=1;orthogonalLoop=1;jettySize=auto;html=1;entryX=0.5;entryY=0;entryDx=0;entryDy=0;fontSize=16;fontStyle=1;labelBackgroundColor=none;strokeColor=#028090;fontColor=default;" parent="WIyWlLk6GJQsqaUBKTNV-1" source="fTt4aev8CvQFNW-zbHjn-61" target="fTt4aev8CvQFNW-zbHjn-29" edge="1">
          <mxGeometry relative="1" as="geometry" />
        </mxCell>
        <mxCell id="fTt4aev8CvQFNW-zbHjn-61" value="查找types字段指定的文件" style="rounded=1;whiteSpace=wrap;html=1;fontSize=16;glass=0;strokeWidth=1;shadow=0;fontStyle=1;labelBackgroundColor=none;fillColor=#F45B69;strokeColor=#028090;fontColor=#E4FDE1;" parent="WIyWlLk6GJQsqaUBKTNV-1" vertex="1">
          <mxGeometry x="719" y="1280" width="240" height="40" as="geometry" />
        </mxCell>
        <mxCell id="fTt4aev8CvQFNW-zbHjn-85" value="" style="edgeStyle=orthogonalEdgeStyle;rounded=1;orthogonalLoop=1;jettySize=auto;html=1;fontSize=16;fontStyle=1;exitX=1;exitY=0.5;exitDx=0;exitDy=0;labelBackgroundColor=none;strokeColor=#028090;fontColor=default;" parent="WIyWlLk6GJQsqaUBKTNV-1" source="fTt4aev8CvQFNW-zbHjn-64" target="fTt4aev8CvQFNW-zbHjn-66" edge="1">
          <mxGeometry relative="1" as="geometry">
            <mxPoint x="1328" y="1422" as="sourcePoint" />
          </mxGeometry>
        </mxCell>
        <mxCell id="fTt4aev8CvQFNW-zbHjn-64" value="查找package.json文件&lt;br style=&quot;font-size: 16px;&quot;&gt;中的main字段" style="rounded=1;whiteSpace=wrap;html=1;fontSize=16;glass=0;strokeWidth=1;shadow=0;fontStyle=1;labelBackgroundColor=none;fillColor=#F45B69;strokeColor=#028090;fontColor=#E4FDE1;" parent="WIyWlLk6GJQsqaUBKTNV-1" vertex="1">
          <mxGeometry x="998" y="1160" width="240" height="80" as="geometry" />
        </mxCell>
        <mxCell id="fTt4aev8CvQFNW-zbHjn-70" value="Yes" style="edgeStyle=orthogonalEdgeStyle;rounded=1;orthogonalLoop=1;jettySize=auto;html=1;entryX=0.5;entryY=0;entryDx=0;entryDy=0;labelPosition=right;verticalLabelPosition=middle;align=left;verticalAlign=middle;fontSize=16;fontStyle=1;labelBackgroundColor=none;strokeColor=#028090;fontColor=default;" parent="WIyWlLk6GJQsqaUBKTNV-1" source="fTt4aev8CvQFNW-zbHjn-66" target="fTt4aev8CvQFNW-zbHjn-69" edge="1">
          <mxGeometry relative="1" as="geometry" />
        </mxCell>
        <mxCell id="4uB3L2ICESDj7g6x4wae-24" style="edgeStyle=orthogonalEdgeStyle;rounded=0;orthogonalLoop=1;jettySize=auto;html=1;fontSize=16;fontStyle=1;labelBackgroundColor=none;strokeColor=#028090;fontColor=default;" parent="WIyWlLk6GJQsqaUBKTNV-1" source="fTt4aev8CvQFNW-zbHjn-69" edge="1">
          <mxGeometry relative="1" as="geometry">
            <mxPoint x="839" y="1400" as="targetPoint" />
            <Array as="points">
              <mxPoint x="1400" y="1400" />
            </Array>
          </mxGeometry>
        </mxCell>
        <mxCell id="fTt4aev8CvQFNW-zbHjn-69" value="查找main字段对应的文件所在目录下同名文件&lt;br style=&quot;font-size: 16px;&quot;&gt;（默认后缀为`.ts`、`.ts.d.ts`的文件）" style="rounded=1;whiteSpace=wrap;html=1;fontSize=16;glass=0;strokeWidth=1;shadow=0;fontStyle=1;labelBackgroundColor=none;fillColor=#F45B69;strokeColor=#028090;fontColor=#E4FDE1;" parent="WIyWlLk6GJQsqaUBKTNV-1" vertex="1">
          <mxGeometry x="1200" y="1280" width="400" height="80" as="geometry" />
        </mxCell>
        <mxCell id="fTt4aev8CvQFNW-zbHjn-91" value="import &quot;moduleA&quot;&lt;br style=&quot;border-color: var(--border-color); font-size: 16px;&quot;&gt;以导入该模块的文件所在目录&lt;br style=&quot;border-color: var(--border-color); font-size: 16px;&quot;&gt;开始" style="strokeWidth=2;html=1;shape=mxgraph.flowchart.start_2;whiteSpace=wrap;rounded=1;fontSize=16;fontStyle=1;labelBackgroundColor=none;fillColor=#F45B69;strokeColor=#028090;fontColor=#E4FDE1;" parent="WIyWlLk6GJQsqaUBKTNV-1" vertex="1">
          <mxGeometry x="158" y="39" width="240" height="80" as="geometry" />
        </mxCell>
        <mxCell id="fTt4aev8CvQFNW-zbHjn-92" value="End" style="strokeWidth=2;html=1;shape=mxgraph.flowchart.start_2;whiteSpace=wrap;rounded=1;fontSize=16;fontStyle=1;labelBackgroundColor=none;fillColor=#F45B69;strokeColor=#028090;fontColor=#E4FDE1;" parent="WIyWlLk6GJQsqaUBKTNV-1" vertex="1">
          <mxGeometry x="158" y="1880" width="240" height="80" as="geometry" />
        </mxCell>
        <mxCell id="fl-ZTP4sPhZTgfokd5Q8-5" value="" style="edgeStyle=orthogonalEdgeStyle;rounded=0;orthogonalLoop=1;jettySize=auto;html=1;labelBackgroundColor=none;strokeColor=#028090;fontColor=default;fontSize=16;fontStyle=1" parent="WIyWlLk6GJQsqaUBKTNV-1" source="fl-ZTP4sPhZTgfokd5Q8-1" target="fl-ZTP4sPhZTgfokd5Q8-0" edge="1">
          <mxGeometry relative="1" as="geometry" />
        </mxCell>
        <mxCell id="fl-ZTP4sPhZTgfokd5Q8-1" value="查找文件夹下是否存在对应的文件&lt;br style=&quot;font-size: 16px;&quot;&gt;（以index为名称的文件，默认扩展为.ts、.d.ts）" style="rounded=1;whiteSpace=wrap;html=1;fontSize=16;glass=0;strokeWidth=1;shadow=0;fontStyle=1;labelBackgroundColor=none;fillColor=#F45B69;strokeColor=#028090;fontColor=#E4FDE1;" parent="WIyWlLk6GJQsqaUBKTNV-1" vertex="1">
          <mxGeometry x="639" y="1560" width="400" height="80" as="geometry" />
        </mxCell>
        <mxCell id="fl-ZTP4sPhZTgfokd5Q8-7" value="Yes" style="edgeStyle=orthogonalEdgeStyle;rounded=0;orthogonalLoop=1;jettySize=auto;html=1;strokeColor=#028090;fontColor=default;fillColor=#F45B69;fontSize=16;labelPosition=center;verticalLabelPosition=top;align=center;verticalAlign=bottom;fontStyle=1;labelBackgroundColor=none;" parent="WIyWlLk6GJQsqaUBKTNV-1" source="fl-ZTP4sPhZTgfokd5Q8-0" edge="1">
          <mxGeometry x="-0.8636" relative="1" as="geometry">
            <mxPoint x="278" y="1720" as="targetPoint" />
            <mxPoint as="offset" />
          </mxGeometry>
        </mxCell>
        <mxCell id="4uB3L2ICESDj7g6x4wae-31" value="No" style="edgeStyle=orthogonalEdgeStyle;rounded=0;orthogonalLoop=1;jettySize=auto;html=1;fontSize=16;fontStyle=1;labelBackgroundColor=none;strokeColor=#028090;fontColor=default;labelPosition=right;verticalLabelPosition=middle;align=left;verticalAlign=middle;" parent="WIyWlLk6GJQsqaUBKTNV-1" source="fl-ZTP4sPhZTgfokd5Q8-0" target="4uB3L2ICESDj7g6x4wae-27" edge="1">
          <mxGeometry relative="1" as="geometry" />
        </mxCell>
        <mxCell id="fl-ZTP4sPhZTgfokd5Q8-0" value="判断文件是否存在" style="rhombus;whiteSpace=wrap;html=1;shadow=0;fontFamily=Helvetica;fontSize=16;align=center;strokeWidth=1;spacing=6;spacingTop=-4;rounded=1;fontStyle=1;labelBackgroundColor=none;fillColor=#F45B69;strokeColor=#028090;fontColor=#E4FDE1;" parent="WIyWlLk6GJQsqaUBKTNV-1" vertex="1">
          <mxGeometry x="719" y="1680" width="240" height="80" as="geometry" />
        </mxCell>
        <mxCell id="4uB3L2ICESDj7g6x4wae-2" value="" style="edgeStyle=orthogonalEdgeStyle;rounded=0;orthogonalLoop=1;jettySize=auto;html=1;fontSize=16;fontStyle=1;labelBackgroundColor=none;strokeColor=#028090;fontColor=default;" parent="WIyWlLk6GJQsqaUBKTNV-1" source="4uB3L2ICESDj7g6x4wae-0" target="4uB3L2ICESDj7g6x4wae-1" edge="1">
          <mxGeometry relative="1" as="geometry" />
        </mxCell>
        <mxCell id="4uB3L2ICESDj7g6x4wae-0" value="查找package.json文件&lt;br style=&quot;font-size: 16px;&quot;&gt;中的exports字段" style="rounded=1;whiteSpace=wrap;html=1;fontSize=16;glass=0;strokeWidth=1;shadow=0;fontStyle=1;labelBackgroundColor=none;fillColor=#F45B69;strokeColor=#028090;fontColor=#000000;sketch=1;curveFitting=1;jiggle=2;" parent="WIyWlLk6GJQsqaUBKTNV-1" vertex="1">
          <mxGeometry x="719" y="800" width="240" height="81" as="geometry" />
        </mxCell>
        <mxCell id="4uB3L2ICESDj7g6x4wae-4" value="Yes" style="edgeStyle=orthogonalEdgeStyle;rounded=0;orthogonalLoop=1;jettySize=auto;html=1;fontSize=16;fontStyle=1;labelBackgroundColor=none;strokeColor=#028090;fontColor=default;labelPosition=center;verticalLabelPosition=top;align=center;verticalAlign=bottom;" parent="WIyWlLk6GJQsqaUBKTNV-1" source="4uB3L2ICESDj7g6x4wae-1" target="4uB3L2ICESDj7g6x4wae-3" edge="1">
          <mxGeometry x="-0.4359" relative="1" as="geometry">
            <Array as="points">
              <mxPoint x="970" y="960" />
              <mxPoint x="970" y="960" />
            </Array>
            <mxPoint as="offset" />
          </mxGeometry>
        </mxCell>
        <mxCell id="4uB3L2ICESDj7g6x4wae-16" value="No" style="edgeStyle=orthogonalEdgeStyle;rounded=0;orthogonalLoop=1;jettySize=auto;html=1;fontSize=16;fontStyle=1;labelBackgroundColor=none;strokeColor=#028090;fontColor=default;labelPosition=right;verticalLabelPosition=middle;align=left;verticalAlign=middle;" parent="WIyWlLk6GJQsqaUBKTNV-1" source="4uB3L2ICESDj7g6x4wae-1" target="fTt4aev8CvQFNW-zbHjn-33" edge="1">
          <mxGeometry relative="1" as="geometry" />
        </mxCell>
        <mxCell id="4uB3L2ICESDj7g6x4wae-1" value="判断是否&lt;br style=&quot;font-size: 16px;&quot;&gt;存在exports字段" style="rhombus;whiteSpace=wrap;html=1;shadow=0;fontFamily=Helvetica;fontSize=16;align=center;strokeWidth=1;spacing=6;spacingTop=-4;rounded=1;fontStyle=1;labelBackgroundColor=none;fillColor=#F45B69;strokeColor=#028090;fontColor=#E4FDE1;" parent="WIyWlLk6GJQsqaUBKTNV-1" vertex="1">
          <mxGeometry x="719" y="920" width="240" height="80" as="geometry" />
        </mxCell>
        <mxCell id="4uB3L2ICESDj7g6x4wae-18" value="" style="edgeStyle=orthogonalEdgeStyle;rounded=0;orthogonalLoop=1;jettySize=auto;html=1;entryX=1;entryY=0.5;entryDx=0;entryDy=0;fontSize=16;fontStyle=1;labelBackgroundColor=none;strokeColor=#028090;fontColor=default;" parent="WIyWlLk6GJQsqaUBKTNV-1" source="4uB3L2ICESDj7g6x4wae-3" target="fl-ZTP4sPhZTgfokd5Q8-0" edge="1">
          <mxGeometry relative="1" as="geometry">
            <mxPoint x="1399" y="960" as="targetPoint" />
            <Array as="points">
              <mxPoint x="1719" y="960" />
              <mxPoint x="1719" y="1720" />
            </Array>
          </mxGeometry>
        </mxCell>
        <mxCell id="4uB3L2ICESDj7g6x4wae-3" value="查找exports字段指定的文件" style="rounded=1;whiteSpace=wrap;html=1;fontSize=16;glass=0;strokeWidth=1;shadow=0;fontStyle=1;labelBackgroundColor=none;fillColor=#F45B69;strokeColor=#028090;fontColor=#E4FDE1;" parent="WIyWlLk6GJQsqaUBKTNV-1" vertex="1">
          <mxGeometry x="998" y="940" width="240" height="40" as="geometry" />
        </mxCell>
        <mxCell id="4uB3L2ICESDj7g6x4wae-34" style="edgeStyle=orthogonalEdgeStyle;rounded=0;orthogonalLoop=1;jettySize=auto;html=1;entryX=0;entryY=0.5;entryDx=0;entryDy=0;fontSize=16;fontStyle=1;labelBackgroundColor=none;strokeColor=#028090;fontColor=default;" parent="WIyWlLk6GJQsqaUBKTNV-1" source="4uB3L2ICESDj7g6x4wae-5" target="WIyWlLk6GJQsqaUBKTNV-6" edge="1">
          <mxGeometry relative="1" as="geometry">
            <Array as="points">
              <mxPoint x="40" y="2000" />
              <mxPoint x="40" y="279" />
            </Array>
          </mxGeometry>
        </mxCell>
        <mxCell id="4uB3L2ICESDj7g6x4wae-5" value="查找过node-modules文件夹下的&lt;br style=&quot;border-color: var(--border-color); font-size: 16px;&quot;&gt;@types文件夹" style="rounded=1;whiteSpace=wrap;html=1;fontSize=16;glass=0;strokeWidth=1;shadow=0;fontStyle=1;labelBackgroundColor=none;fillColor=#F45B69;strokeColor=#028090;fontColor=#E4FDE1;" parent="WIyWlLk6GJQsqaUBKTNV-1" vertex="1">
          <mxGeometry x="639" y="1960" width="400" height="80" as="geometry" />
        </mxCell>
        <mxCell id="4uB3L2ICESDj7g6x4wae-23" value="No" style="edgeStyle=orthogonalEdgeStyle;rounded=1;orthogonalLoop=1;jettySize=auto;html=1;labelPosition=center;verticalLabelPosition=top;align=center;verticalAlign=bottom;fontSize=16;fontStyle=1;labelBackgroundColor=none;strokeColor=#028090;fontColor=default;entryX=1;entryY=0.5;entryDx=0;entryDy=0;" parent="WIyWlLk6GJQsqaUBKTNV-1" source="fTt4aev8CvQFNW-zbHjn-25" target="fl-ZTP4sPhZTgfokd5Q8-1" edge="1">
          <mxGeometry x="-0.9809" relative="1" as="geometry">
            <mxPoint x="-1" as="offset" />
            <mxPoint x="1318" y="1680" as="targetPoint" />
            <Array as="points">
              <mxPoint x="1679" y="719" />
              <mxPoint x="1679" y="1600" />
            </Array>
            <mxPoint x="998" y="719" as="sourcePoint" />
          </mxGeometry>
        </mxCell>
        <mxCell id="4uB3L2ICESDj7g6x4wae-25" value="No" style="edgeStyle=orthogonalEdgeStyle;rounded=0;orthogonalLoop=1;jettySize=auto;html=1;exitX=1;exitY=0.5;exitDx=0;exitDy=0;fontSize=16;fontStyle=1;labelBackgroundColor=none;strokeColor=#028090;fontColor=default;labelPosition=center;verticalLabelPosition=top;align=center;verticalAlign=bottom;" parent="WIyWlLk6GJQsqaUBKTNV-1" source="fTt4aev8CvQFNW-zbHjn-66" edge="1">
          <mxGeometry x="-0.9229" relative="1" as="geometry">
            <mxPoint x="1639" y="1600" as="targetPoint" />
            <Array as="points">
              <mxPoint x="1639" y="1200" />
            </Array>
            <mxPoint as="offset" />
          </mxGeometry>
        </mxCell>
        <mxCell id="fTt4aev8CvQFNW-zbHjn-66" value="判断是否&lt;br style=&quot;font-size: 16px;&quot;&gt;存在main字段" style="rhombus;whiteSpace=wrap;html=1;shadow=0;fontFamily=Helvetica;fontSize=16;align=center;strokeWidth=1;spacing=6;spacingTop=-4;rounded=1;fontStyle=1;labelBackgroundColor=none;fillColor=#F45B69;strokeColor=#028090;fontColor=#E4FDE1;" parent="WIyWlLk6GJQsqaUBKTNV-1" vertex="1">
          <mxGeometry x="1280" y="1160" width="240" height="80" as="geometry" />
        </mxCell>
        <mxCell id="4uB3L2ICESDj7g6x4wae-29" style="edgeStyle=orthogonalEdgeStyle;rounded=0;orthogonalLoop=1;jettySize=auto;html=1;fontSize=16;fontStyle=1;labelBackgroundColor=none;strokeColor=#028090;fontColor=default;" parent="WIyWlLk6GJQsqaUBKTNV-1" source="4uB3L2ICESDj7g6x4wae-27" target="fTt4aev8CvQFNW-zbHjn-51" edge="1">
          <mxGeometry relative="1" as="geometry" />
        </mxCell>
        <mxCell id="4uB3L2ICESDj7g6x4wae-33" value="Yes" style="edgeLabel;html=1;align=center;verticalAlign=middle;resizable=0;points=[];fontSize=16;fontStyle=1;labelBackgroundColor=none;fontColor=#000000;" parent="4uB3L2ICESDj7g6x4wae-29" vertex="1" connectable="0">
          <mxGeometry x="-0.9507" y="-1" relative="1" as="geometry">
            <mxPoint x="-29" y="-11" as="offset" />
          </mxGeometry>
        </mxCell>
        <mxCell id="4uB3L2ICESDj7g6x4wae-32" value="No" style="edgeStyle=orthogonalEdgeStyle;rounded=0;orthogonalLoop=1;jettySize=auto;html=1;fontSize=16;fontStyle=1;labelBackgroundColor=none;strokeColor=#028090;fontColor=default;labelPosition=right;verticalLabelPosition=middle;align=left;verticalAlign=middle;" parent="WIyWlLk6GJQsqaUBKTNV-1" source="4uB3L2ICESDj7g6x4wae-27" target="4uB3L2ICESDj7g6x4wae-5" edge="1">
          <mxGeometry relative="1" as="geometry" />
        </mxCell>
        <mxCell id="4uB3L2ICESDj7g6x4wae-27" value="判断当前目录是否是&lt;br style=&quot;font-size: 16px;&quot;&gt;node-modules文件夹下的&lt;br style=&quot;font-size: 16px;&quot;&gt;@types文件夹" style="rhombus;whiteSpace=wrap;html=1;shadow=0;fontFamily=Helvetica;fontSize=16;align=center;strokeWidth=1;spacing=6;spacingTop=-4;rounded=1;fontStyle=1;labelBackgroundColor=none;fillColor=#F45B69;strokeColor=#028090;fontColor=#E4FDE1;" parent="WIyWlLk6GJQsqaUBKTNV-1" vertex="1">
          <mxGeometry x="634" y="1800" width="410" height="120" as="geometry" />
        </mxCell>
        <mxCell id="4uB3L2ICESDj7g6x4wae-43" value="" style="curved=1;endArrow=classic;html=1;rounded=0;strokeColor=#FF3333;fontColor=#E4FDE1;fillColor=#F45B69;exitX=0;exitY=0.5;exitDx=0;exitDy=0;dashed=1;entryX=0.55;entryY=0.95;entryDx=0;entryDy=0;entryPerimeter=0;" parent="WIyWlLk6GJQsqaUBKTNV-1" source="4uB3L2ICESDj7g6x4wae-0" target="4uB3L2ICESDj7g6x4wae-44" edge="1">
          <mxGeometry width="50" height="50" relative="1" as="geometry">
            <mxPoint x="950" y="970" as="sourcePoint" />
            <mxPoint x="560" y="780" as="targetPoint" />
            <Array as="points">
              <mxPoint x="630" y="840" />
              <mxPoint x="560" y="840" />
              <mxPoint x="490" y="810" />
            </Array>
          </mxGeometry>
        </mxCell>
        <mxCell id="4uB3L2ICESDj7g6x4wae-44" value="取决于tsconfig中&lt;br style=&quot;font-size: 16px;&quot;&gt;resolvePackageJsonExports&lt;br style=&quot;font-size: 16px;&quot;&gt;配置项是否开启" style="ellipse;shape=cloud;whiteSpace=wrap;html=1;strokeColor=#028090;fontColor=#000000;fillColor=#F45B69;dashed=1;fontSize=16;fontStyle=1;sketch=1;curveFitting=1;jiggle=2;" parent="WIyWlLk6GJQsqaUBKTNV-1" vertex="1">
          <mxGeometry x="300" y="659" width="350" height="120" as="geometry" />
        </mxCell>
      </root>
    </mxGraphModel>
  </diagram>
</mxfile>
